<svg
            xmlns="http://www.w3.org/2000/svg"
            version="1.1"
            viewBox="0 0 2400 800"
            opacity="1"
          >
            <defs>
              <linearGradient
                x1="50%"
                y1="0%"
                x2="50%"
                y2="100%"
                id="sssurf-grad"
              >
                <stop
                  stop-color="hsl(208, 77%, 50%)"
                  stop-opacity="1"
                  offset="0%"
                ></stop>
                <stop
                  stop-color="hsl(208, 74%, 93%)"
                  stop-opacity="1"
                  offset="100%"
                ></stop>
              </linearGradient>
            </defs>
            <g
              fill="url(#sssurf-grad)"
              transform="matrix(1,0,0,1,8.7225341796875,76.31696319580078)"
            >
              <path
                d="M-10,10C42.08333333333333,11.666666666666666,137.91666666666666,26.75,240,18C342.08333333333337,9.25,380,-38.666666666666664,480,-32C580,-25.333333333333336,620,49.375,720,50C820,50.625,860,-25.25,960,-29C1060,-32.75,1100,26.791666666666664,1200,32C1300,37.208333333333336,1340,-9.625,1440,-4C1540,1.625,1580,61.083333333333336,1680,59C1780,56.916666666666664,1820,-14.833333333333334,1920,-14C2020,-13.166666666666666,2060,60.291666666666664,2160,63C2260,65.70833333333333,2297.9166666666665,-71.20833333333333,2400,-1C2502.0833333333335,69.20833333333333,3254.1666666666665,212.29166666666669,2650,400C2045.8333333333335,587.7083333333333,156.25,795.8333333333334,-500,900"
                transform="matrix(1,0,0,1,0,116)"
                opacity="0.05"
              ></path>
              <path
                d="M-10,10C42.08333333333333,11.666666666666666,137.91666666666666,26.75,240,18C342.08333333333337,9.25,380,-38.666666666666664,480,-32C580,-25.333333333333336,620,49.375,720,50C820,50.625,860,-25.25,960,-29C1060,-32.75,1100,26.791666666666664,1200,32C1300,37.208333333333336,1340,-9.625,1440,-4C1540,1.625,1580,61.083333333333336,1680,59C1780,56.916666666666664,1820,-14.833333333333334,1920,-14C2020,-13.166666666666666,2060,60.291666666666664,2160,63C2260,65.70833333333333,2297.9166666666665,-71.20833333333333,2400,-1C2502.0833333333335,69.20833333333333,3254.1666666666665,212.29166666666669,2650,400C2045.8333333333335,587.7083333333333,156.25,795.8333333333334,-500,900"
                transform="matrix(1,0,0,1,0,232)"
                opacity="0.37"
              ></path>
              <path
                d="M-10,10C42.08333333333333,11.666666666666666,137.91666666666666,26.75,240,18C342.08333333333337,9.25,380,-38.666666666666664,480,-32C580,-25.333333333333336,620,49.375,720,50C820,50.625,860,-25.25,960,-29C1060,-32.75,1100,26.791666666666664,1200,32C1300,37.208333333333336,1340,-9.625,1440,-4C1540,1.625,1580,61.083333333333336,1680,59C1780,56.916666666666664,1820,-14.833333333333334,1920,-14C2020,-13.166666666666666,2060,60.291666666666664,2160,63C2260,65.70833333333333,2297.9166666666665,-71.20833333333333,2400,-1C2502.0833333333335,69.20833333333333,3254.1666666666665,212.29166666666669,2650,400C2045.8333333333335,587.7083333333333,156.25,795.8333333333334,-500,900"
                transform="matrix(1,0,0,1,0,348)"
                opacity="0.68"
              ></path>
              <path
                d="M-10,10C42.08333333333333,11.666666666666666,137.91666666666666,26.75,240,18C342.08333333333337,9.25,380,-38.666666666666664,480,-32C580,-25.333333333333336,620,49.375,720,50C820,50.625,860,-25.25,960,-29C1060,-32.75,1100,26.791666666666664,1200,32C1300,37.208333333333336,1340,-9.625,1440,-4C1540,1.625,1580,61.083333333333336,1680,59C1780,56.916666666666664,1820,-14.833333333333334,1920,-14C2020,-13.166666666666666,2060,60.291666666666664,2160,63C2260,65.70833333333333,2297.9166666666665,-71.20833333333333,2400,-1C2502.0833333333335,69.20833333333333,3254.1666666666665,212.29166666666669,2650,400C2045.8333333333335,587.7083333333333,156.25,795.8333333333334,-500,900"
                transform="matrix(1,0,0,1,0,464)"
                opacity="1.00"
              ></path>
            </g>
          </svg>